<svg id="Layer_1" data-name="Layer 1" xmlns="http://www.w3.org/2000/svg" viewBox="0 0 500 210"><defs><style>.cls-1{fill:#000;}.cls-2{fill:#61b4e4;}.cls-3{fill:#7cdfa8;}</style></defs><title>snig_web-drafts_007</title><path class="cls-1" d="M252.2676,157.8811H250.901c-15.6384,0-30.062-9.9261-30.062-27.8232,0-3.76,2.8851-5.5644,5.77-5.5644a5.46,5.46,0,0,1,5.77,5.7148c0,10.6782,8.8059,16.2425,18.6747,16.2425h1.5185c11.8422,0,17.1562-6.0156,17.1562-16.6938,0-12.3324-8.654-15.7913-18.0673-20.9048-14.5754-7.8206-29.3027-11.8812-29.3027-30.9813,0-14.5883,12.602-25.7174,28.5435-25.7174h1.5185c14.5754,0,27.6324,10.2266,27.6324,24.0631a5.19,5.19,0,0,1-5.4659,5.5644,6.0143,6.0143,0,0,1-6.0726-5.414c-0.7592-7.3694-7.1362-12.7836-16.3976-12.7836h-1.3666c-12.45,0-16.7007,9.0236-16.7007,14.2875,0,10.8283,9.4133,14.4379,17.6118,18.6489,15.1828,7.971,29.6064,12.9341,29.6064,33.3876C281.2667,147.0525,270.4868,157.8811,252.2676,157.8811Z"/><path class="cls-1" d="M352.1029,157.8811c-2.2771,0-5.6171,0-7.8948-5.1135L311.11,78.6232V152.166a5.77,5.77,0,0,1-11.5391,0V58.0189c0-4.0606,3.34-5.8652,6.8325-5.8652,3.34,0,5.9214.7518,7.7429,4.8126l32.9464,74.4453V57.8685a5.6694,5.6694,0,0,1,5.9214-5.7148,5.4294,5.4294,0,0,1,5.6177,5.7148v93.2446C358.6317,156.0761,355.4435,157.8811,352.1029,157.8811Z"/><path class="cls-1" d="M389.3621,157.8463c-6.2637,0-12.5273-4.0652-12.5273-11.9813V64.135c0-7.9162,6.2637-11.9813,12.5273-11.9813S401.89,56.2189,401.89,64.135v81.73C401.89,153.7811,395.6263,157.8463,389.3621,157.8463Z"/><path class="cls-1" d="M458.4973,202.7762h-1.7279c-14.6871,0-32.6144-7.7023-37.7981-24.6046a14.4163,14.4163,0,0,1-.648-4.0652c0-7.06,5.6156-11.5533,11.8793-11.5533,4.7519,0,9.2877,2.9952,12.0955,8.5581,1.2961,2.5674,6.048,7.06,14.4715,7.06h1.7279a11.1229,11.1229,0,0,0,11.4474-11.5533V153.3531a18.6041,18.6041,0,0,1-11.8793,4.4932h-1.2961c-20.3033,0-36.7183-16.2607-36.7183-36.1582V88.3116a36.3351,36.3351,0,0,1,36.7183-36.1579h1.2961a18.4005,18.4005,0,0,1,11.8793,4.4929c3.4559-3.2091,6.9117-4.4929,12.7435-4.4929,6.6955,0,12.3117,4.279,12.3117,11.9813V166.6183A36.4246,36.4246,0,0,1,458.4973,202.7762ZM469.9448,88.74c0-6.6326-4.7519-11.9813-11.4474-11.9813h-1.7279c-6.9117,0-11.6636,5.3487-11.6636,11.9813v32.7346c0,6.6326,4.7519,11.7675,11.6636,11.7675h1.7279c6.6955,0,11.4474-5.1349,11.4474-11.7675V88.74Z"/><path class="cls-2" d="M173.6068,35.82L142.1925,66.9378a4.5967,4.5967,0,0,1,1.1389,4.75l-28.12,83.5645a4.7014,4.7014,0,0,1-8.7875.29L90.7525,117.8945l-0.0016-.0006L33.9285,174.18a99.4342,99.4342,0,0,0,139.6783,0A97.1839,97.1839,0,0,0,173.6068,35.82Z"/><path class="cls-3" d="M52.7462,102.3712a4.6286,4.6286,0,0,1,.2929-8.7047L137.4,65.8117a4.6228,4.6228,0,0,1,2.9842-.0058,4.643,4.643,0,0,1,1.8085,1.1318L173.6068,35.82h0a99.4342,99.4342,0,0,0-139.6784,0,97.1839,97.1839,0,0,0,0,138.36h0l56.8224-56.2862Z"/></svg>